<svg version="1.1" id="Layer_1" xmlns="http://www.w3.org/2000/svg" xmlns:xlink="http://www.w3.org/1999/xlink" x="0px" y="0px"
	 width="100%" viewBox="0 0 1024 1024" enable-background="new 0 0 1024 1024" xml:space="preserve">
<path fill="none" opacity="1.000000" stroke="#000000" stroke-linecap="round" stroke-linejoin="round" stroke-width="3.000000"
	d="
M278.000000,142.000015 
	C268.666656,139.333344 259.330261,136.677383 250.003281,133.988632 
	C248.577194,133.577545 247.275269,134.249069 246.561584,135.054565 
	C243.036301,139.033371 240.517685,143.522293 239.965515,148.996521 
	C239.391693,154.685287 241.387329,158.771576 245.344147,163.141144 
	C261.652222,181.150314 282.504211,192.079880 304.037292,201.918381 
	C323.280762,210.710754 343.146942,217.743362 363.975769,222.115387 
	C384.051147,226.329254 402.384674,234.688797 419.110962,246.847366 
	C426.443359,252.177383 429.691101,259.900269 433.894714,267.061798 
	C443.637878,283.660828 451.178284,301.330994 457.472595,319.509491 
	C461.413696,330.891876 463.174896,342.831390 465.987030,354.503113 
	C467.066589,358.983948 467.992676,363.501648 469.001892,367.999573 
	C470.261444,373.613037 470.037567,379.316620 469.984741,384.999847 
	C469.866943,397.666962 469.920868,410.343689 469.406372,422.996185 
	C469.088562,430.812927 470.740173,438.342773 471.521759,445.997772 
	C472.528900,455.861633 471.581299,465.670624 471.017365,475.501007 
	C470.119415,491.153290 469.068695,506.818420 469.574646,522.497620 
	C469.964813,534.589172 467.977203,546.490295 467.293182,558.488220 
	C466.878693,565.758484 467.725739,572.881897 468.222290,579.984436 
	C469.045868,591.764648 467.556976,603.350464 466.899750,614.994324 
	C466.122223,628.769470 464.078430,642.466309 461.353241,655.970398 
	C458.956726,667.845825 457.792816,680.201538 451.420837,690.953064 
	C450.461121,692.572449 450.881805,693.353088 452.039093,693.920227 
	C452.728821,694.258301 453.402985,693.402954 453.500000,692.500000 
"/>
<path fill="none" opacity="1.000000" stroke="#000000" stroke-linecap="round" stroke-linejoin="round" stroke-width="3.000000"
	d="
M625.500000,110.500000 
	C638.148926,104.793732 649.799805,97.206970 663.360779,93.046173 
	C670.524963,90.848045 677.954407,88.834480 684.980835,85.953316 
	C686.899536,85.166618 688.516113,85.606400 689.978821,86.533432 
	C699.552063,92.601013 708.851318,99.169556 716.893982,107.107391 
	C726.412659,116.501945 727.065125,126.875130 719.043274,141.024536 
	C711.308533,154.667496 699.298584,164.248566 687.974609,174.471848 
	C665.107605,195.116104 638.999084,211.498886 614.514832,230.019592 
	C604.984863,237.228378 596.103027,245.212814 587.504517,253.504684 
	C572.891235,267.596741 558.460327,281.872284 542.542542,294.553406 
	C535.214294,300.391541 526.714417,303.442108 517.951721,305.822205 
	C515.709656,306.431183 513.677246,307.822906 510.991760,307.724457 
	C509.059692,307.653656 507.912262,309.826721 507.899689,312.499542 
	C507.836792,325.853119 507.512604,339.237976 505.904419,352.488403 
	C503.517029,372.158813 503.496429,391.782898 504.900085,411.507111 
	C505.526520,420.309631 505.608978,429.178986 505.838501,438.004211 
	C506.536774,464.853790 510.005585,491.586487 509.024689,518.500916 
	C508.318909,537.865051 507.744141,557.212463 505.646332,576.515930 
	C504.350616,588.438965 504.356201,600.507141 503.605927,612.506653 
	C502.224731,634.597290 499.765961,656.558960 497.001648,678.500183 
	C496.326630,683.858032 498.372223,689.134216 497.500000,694.500000 
"/>
<path fill="none" opacity="1.000000" stroke="#000000" stroke-linecap="round" stroke-linejoin="round" stroke-width="2.000000"
	d="
M763.500000,689.500000 
	C755.833313,690.666687 748.172302,691.871887 740.498474,692.989563 
	C732.171875,694.202271 723.830750,695.315552 715.500732,696.505127 
	C707.497375,697.648132 699.509521,698.904602 691.497131,699.978516 
	C684.510925,700.914978 677.468018,701.460571 670.506531,702.542114 
	C655.254028,704.911682 639.817017,705.472107 624.486145,706.212891 
	C606.211670,707.096008 587.854858,707.524597 569.490662,706.709961 
	C560.623901,706.316650 552.987915,703.589111 545.500000,699.500000 
"/>
<path fill="none" opacity="1.000000" stroke="#000000" stroke-linecap="round" stroke-linejoin="round" stroke-width="2.000000"
	d="
M540.000000,788.500000 
	C536.500000,799.666687 532.642700,810.740417 529.700989,822.052246 
	C528.721130,825.820129 531.823242,829.734131 533.184814,833.431946 
	C537.678833,845.636292 539.508240,858.374878 542.020874,870.995850 
	C544.729431,884.601013 546.012695,898.421936 548.792603,912.042297 
	C551.232788,923.998047 549.277405,936.192078 546.391846,947.973511 
	C544.276978,956.608643 540.994568,964.952698 538.635925,973.537354 
	C538.124756,975.397827 536.744812,976.111328 535.444702,977.620239 
	C534.463135,972.580139 533.481567,967.540100 532.500000,962.500000 
"/>
<path fill="none" opacity="1.000000" stroke="#000000" stroke-linecap="round" stroke-linejoin="round" stroke-width="3.000000"
	d="
M586.000000,794.500000 
	C584.631165,798.524292 587.188782,801.779724 588.624390,804.943542 
	C598.260254,826.179321 604.952209,848.558289 614.094360,869.959717 
	C620.953308,886.016235 625.987427,902.544861 630.108337,919.473633 
	C633.613037,933.871033 634.753906,948.287781 633.563171,963.005127 
	C633.186218,967.664795 633.264709,972.354126 632.557312,977.008728 
	C632.246399,979.055115 632.233765,981.033569 629.776428,982.224670 
	C627.599609,980.479675 627.256958,977.974426 627.017944,975.498291 
	C626.279785,967.851807 625.901184,960.193481 625.965820,952.499695 
	C626.079895,938.927551 623.635742,926.464905 615.287170,914.794556 
	C607.259827,903.573425 603.844849,889.768311 600.047852,876.486328 
	C597.229492,866.627686 593.703308,857.041382 590.045532,847.482544 
	C589.187622,845.240601 588.008179,843.279419 586.482849,841.514832 
	C583.977966,838.617249 583.049988,835.261047 582.979675,831.500366 
	C582.745667,818.990906 583.928345,806.424072 581.532288,793.993774 
	C581.445312,793.542664 581.833313,793.000000 582.000000,792.500000 
"/>
<path fill="none" opacity="1.000000" stroke="#000000" stroke-linecap="round" stroke-linejoin="round" stroke-width="2.000000"
	d="
M683.500000,856.500000 
	C683.395874,859.150024 681.692688,860.520813 679.458557,861.518433 
	C677.372620,859.431335 676.998108,856.481018 677.126892,854.006592 
	C677.892212,839.300903 672.211243,826.710999 665.019836,814.488342 
	C657.956482,802.483154 650.741272,790.697632 641.116821,780.390930 
	C631.736511,770.345764 620.999939,762.334290 609.557312,754.911621 
	C595.173584,745.581116 581.760925,734.778137 566.959900,726.068115 
	C561.668701,722.954407 556.052307,720.150269 549.500000,721.000000 
"/>
<path fill="none" opacity="1.000000" stroke="#000000" stroke-linecap="round" stroke-linejoin="round" stroke-width="3.000000"
	d="
M571.500000,820.500000 
	C572.611145,832.724548 568.931274,844.258667 566.567627,856.013611 
	C563.781799,869.868469 563.353210,883.908386 564.487000,898.001038 
	C565.385010,909.162537 566.362854,920.323486 566.921570,931.503906 
	C567.224792,937.571167 568.127258,943.560669 569.256775,949.450745 
	C569.646362,951.481934 569.973145,953.527161 569.900696,955.496338 
	C569.813965,957.854187 571.117371,957.519958 572.500000,957.500000 
"/>
<path fill="none" opacity="1.000000" stroke="#000000" stroke-linecap="round" stroke-linejoin="round" stroke-width="2.000000"
	d="
M548.500000,721.500000 
	C551.842834,727.476929 557.060974,731.977783 561.189575,737.354431 
	C567.643982,745.759827 571.709595,755.030396 574.432312,765.018433 
	C575.869446,770.290405 578.062866,774.219055 582.851257,777.704346 
	C596.637146,787.738647 606.687256,801.315308 616.081482,815.445862 
	C623.670776,826.861511 624.622681,839.487610 624.500000,852.500000 
"/>
<path fill="none" opacity="1.000000" stroke="#000000" stroke-linecap="round" stroke-linejoin="round" stroke-width="2.000000"
	d="
M439.000000,744.500000 
	C443.890900,750.858765 446.414886,758.583374 450.433197,765.238403 
	C454.647583,772.218201 452.422546,775.939941 448.559631,781.045105 
	C432.844940,801.813354 417.778290,823.053040 402.961060,844.473083 
	C396.934418,853.185181 392.638031,862.817566 387.560181,872.033142 
	C387.147705,872.781677 386.736328,874.000000 387.500000,875.000000 
"/>
<path fill="none" opacity="1.000000" stroke="#000000" stroke-linecap="round" stroke-linejoin="round" stroke-width="2.000000"
	d="
M456.500000,784.500000 
	C454.760468,792.042358 455.855652,799.482483 456.910034,807.012573 
	C458.054993,815.189880 455.790985,822.500244 451.118622,829.578308 
	C438.141632,849.236633 427.454102,870.301270 414.616272,890.075500 
	C411.639343,894.660828 407.713654,898.864990 406.231171,905.102478 
	C410.008240,904.478210 411.710052,901.927368 413.500000,899.500000 
"/>
<path fill="none" opacity="1.000000" stroke="#000000" stroke-linecap="round" stroke-linejoin="round" stroke-width="3.000000"
	d="
M708.000000,104.000000 
	C699.798523,108.790695 690.436523,108.486732 681.493408,109.959854 
	C675.594788,110.931465 669.955627,112.709984 664.525696,115.059319 
	C659.645874,117.170631 654.942017,119.575447 649.507507,120.080688 
	C648.124146,120.209305 646.761230,121.220985 645.513733,122.021416 
	C641.992371,124.280846 637.799561,124.208382 633.979980,125.437828 
	C629.408386,126.909340 626.080994,130.292831 622.041016,132.572647 
	C609.953735,139.393646 597.569031,145.859283 587.045349,155.051941 
	C576.390442,164.359268 565.384338,173.248856 555.889038,183.901093 
	C546.404297,194.541534 536.541504,204.768326 528.949585,216.968643 
	C519.822571,231.636063 510.805389,246.341995 504.585907,262.532990 
	C503.773926,264.646820 502.212494,266.935120 503.500000,269.500000 
"/>
<path fill="none" opacity="1.000000" stroke="#000000" stroke-linecap="round" stroke-linejoin="round" stroke-width="2.000000"
	d="
M363.500000,702.500000 
	C362.051331,701.487366 361.314941,702.610718 360.499878,703.499878 
	C355.000000,709.500000 349.551666,715.548401 343.988831,721.489563 
	C333.476379,732.717041 320.787018,741.517700 309.824646,752.322083 
	C299.446625,762.550598 291.287842,774.198181 284.112671,786.565369 
	C274.162201,803.716125 264.329041,820.974609 256.975586,839.490295 
	C252.359375,851.113647 246.091736,862.097290 243.500000,874.500000 
"/>
<path fill="none" opacity="1.000000" stroke="#000000" stroke-linecap="round" stroke-linejoin="round" stroke-width="2.000000"
	d="
M457.500000,670.000000 
	C451.004303,669.124268 444.818695,671.151611 438.493164,671.945496 
	C429.945374,673.018188 421.618591,675.244873 413.016052,676.152161 
	C404.367157,677.064270 396.021606,675.024170 387.501129,674.913086 
	C375.496643,674.756653 363.500000,674.000000 351.500000,673.500000 
"/>
<path fill="none" opacity="1.000000" stroke="#000000" stroke-linecap="round" stroke-linejoin="round" stroke-width="3.000000"
	d="
M403.500000,728.500000 
	C390.602417,737.415405 375.503693,741.015381 360.979706,745.940125 
	C351.219543,749.249634 342.219574,753.969727 334.074921,760.099548 
	C327.601715,764.971191 323.714752,772.281494 319.627441,779.076660 
	C313.672424,788.976929 307.568237,798.505249 298.598633,806.116272 
	C293.387756,810.537964 290.580841,817.263184 285.522339,822.023743 
	C283.628265,823.806213 281.965179,825.816284 279.000000,825.500000 
"/>
<path fill="none" opacity="1.000000" stroke="#000000" stroke-linecap="round" stroke-linejoin="round" stroke-width="2.000000"
	d="
M458.000000,838.500000 
	C460.265991,846.705383 459.703705,855.126953 460.067993,863.497070 
	C460.550354,874.580750 454.248383,883.066467 448.784546,891.358032 
	C437.023254,909.206238 426.417114,927.601624 417.499939,947.000000 
	C415.874207,950.536621 413.602722,953.612854 411.023895,956.521179 
	C407.891113,960.054199 408.160126,961.758362 412.264404,965.223206 
	C420.690704,957.315002 426.726746,947.528748 432.927979,937.953369 
	C440.412476,926.396484 448.755249,915.491882 456.994232,904.495667 
	C463.448944,895.880981 468.097015,886.256104 472.500000,876.500000 
"/>
<path fill="none" opacity="1.000000" stroke="#000000" stroke-linecap="round" stroke-linejoin="round" stroke-width="3.000000"
	d="
M491.000000,765.500000 
	C492.925690,770.536987 491.114746,775.002869 489.022186,779.510315 
	C483.184723,792.084106 476.874634,804.358643 468.559418,815.544189 
	C465.653961,819.452515 465.210724,823.712708 465.635376,829.029114 
	C466.666504,841.937744 468.094574,855.255493 461.538879,867.520752 
	C461.141907,868.263428 460.902985,868.902954 460.000000,869.000000 
"/>
<path fill="none" opacity="1.000000" stroke="#000000" stroke-linecap="round" stroke-linejoin="round" stroke-width="3.000000"
	d="
M328.500000,146.500000 
	C332.025238,147.221268 334.658264,149.509506 337.522095,151.467697 
	C345.458344,156.894272 354.247406,161.347015 361.270782,167.751389 
	C367.218567,173.174957 372.767242,178.992096 379.501007,183.498489 
	C383.995697,186.506439 388.528259,189.458603 392.993896,192.508942 
	C401.347595,198.215149 407.110535,206.369370 413.596252,213.917297 
	C424.710724,226.852097 434.726990,240.571106 444.500000,254.500000 
"/>
<path fill="none" opacity="1.000000" stroke="#000000" stroke-linecap="round" stroke-linejoin="round" stroke-width="2.000000"
	d="
M474.500000,389.500000 
	C476.302246,400.475220 476.096710,411.517578 474.834534,422.480957 
	C474.436737,425.936310 474.709015,429.298187 475.164246,432.476471 
	C476.839752,444.174927 474.863068,455.834045 475.392242,467.504883 
	C475.571594,471.460114 474.087616,475.437866 474.500000,479.500000 
"/>
<path fill="none" opacity="1.000000" stroke="#000000" stroke-linecap="round" stroke-linejoin="round" stroke-width="3.000000"
	d="
M320.500000,179.500000 
	C326.114899,179.456085 331.372772,180.551804 336.015076,183.979599 
	C339.143372,186.289490 343.055145,185.164825 346.539764,185.771622 
	C369.417175,189.755371 388.642944,200.291870 405.009033,216.490875 
	C409.783661,221.216827 414.666656,225.833344 419.500000,230.500015 
"/>
<path fill="none" opacity="1.000000" stroke="#000000" stroke-linecap="round" stroke-linejoin="round" stroke-width="2.000000"
	d="
M519.000000,854.000000 
	C522.954468,860.837463 524.384521,868.538635 526.487610,876.003479 
	C529.535950,886.823181 532.313110,897.723083 535.560974,908.481567 
	C538.024414,916.641602 536.894287,924.865417 536.242920,932.979370 
	C535.991211,936.115234 535.811218,939.330994 535.500000,942.500000 
"/>
<path fill="none" opacity="1.000000" stroke="#000000" stroke-linecap="round" stroke-linejoin="round" stroke-width="2.000000"
	d="
M662.500000,79.000000 
	C646.260986,76.516731 630.652039,79.420937 615.526978,85.072144 
	C602.790100,89.831017 590.011780,94.650742 578.987366,102.983246 
	C577.518494,104.093422 575.173950,104.360519 575.500000,107.000000 
"/>
<path fill="none" opacity="1.000000" stroke="#000000" stroke-linecap="round" stroke-linejoin="round" stroke-width="2.000000"
	d="
M445.500000,736.000000 
	C444.193146,735.185303 443.185455,735.564941 441.973419,736.464172 
	C435.405060,741.337402 428.262512,745.275085 420.998688,748.997437 
	C417.977631,750.545532 417.092743,753.975769 414.550049,756.061035 
	C401.442780,766.810303 392.349182,780.833374 383.524628,795.015320 
	C376.840759,805.757141 372.641022,817.738037 366.934448,828.966675 
	C364.822388,833.122559 362.743774,837.639893 356.779205,839.593933 
	C362.538574,824.061523 368.019287,809.280762 373.499969,794.500000 
"/>
<path fill="none" opacity="1.000000" stroke="#000000" stroke-linecap="round" stroke-linejoin="round" stroke-width="2.000000"
	d="
M451.000000,258.000000 
	C457.610107,266.583435 461.912506,276.583618 467.876160,285.582092 
	C469.886169,288.614990 472.155396,291.398041 474.590240,293.912598 
	C481.164459,300.702179 484.674835,309.805359 491.914917,316.097900 
	C493.998505,317.908813 494.235077,321.224701 494.442566,324.004272 
	C494.951569,330.824524 495.166656,337.666656 495.500000,344.500000 
"/>
<path fill="none" opacity="1.000000" stroke="#000000" stroke-linecap="round" stroke-linejoin="round" stroke-width="3.000000"
	d="
M626.500000,866.500000 
	C625.709900,870.593628 629.217590,874.329102 627.415344,878.705688 
	C622.678650,876.423401 623.830750,871.479980 623.243164,867.959412 
	C622.005310,860.542358 619.755005,853.384521 618.494080,846.000977 
	C614.500427,822.615051 599.811707,806.121277 583.006409,790.992859 
	C581.956848,790.047974 581.000000,789.000000 580.000000,788.000000 
"/>
<path fill="none" opacity="1.000000" stroke="#000000" stroke-linecap="round" stroke-linejoin="round" stroke-width="2.000000"
	d="
M389.500000,739.500000 
	C375.419037,746.192566 361.631775,753.315857 349.971100,763.968384 
	C342.109100,771.150574 334.120056,778.209045 325.498352,784.497742 
	C322.508636,786.678528 319.529541,788.876160 316.483307,790.975769 
	C315.476044,791.669983 314.320648,792.411133 313.000000,791.500000 
"/>
<path fill="none" opacity="1.000000" stroke="#000000" stroke-linecap="round" stroke-linejoin="round" stroke-width="3.000000"
	d="
M250.500000,133.500000 
	C257.754913,129.895401 265.417175,128.124649 273.490112,129.083176 
	C276.344482,129.422089 279.185089,129.207550 281.995361,129.539383 
	C287.587799,130.199753 292.319977,130.802963 296.926422,136.131348 
	C302.539825,142.624496 311.329956,146.532532 319.558960,149.853943 
	C329.188538,153.740692 338.162323,158.673645 347.016083,163.973114 
	C352.910095,167.500961 358.834412,171.025574 365.500000,173.000000 
"/>
<path fill="none" opacity="1.000000" stroke="#000000" stroke-linecap="round" stroke-linejoin="round" stroke-width="2.000000"
	d="
M583.500000,840.000000 
	C579.984131,845.485901 579.348022,851.939819 578.158936,858.031006 
	C575.300659,872.674072 574.333801,887.531555 574.282776,902.499268 
	C574.264832,907.771973 573.537964,913.148193 573.500000,918.500000 
"/>
<path fill="none" opacity="1.000000" stroke="#000000" stroke-linecap="round" stroke-linejoin="round" stroke-width="3.000000"
	d="
M412.000000,720.000000 
	C401.735901,720.009399 391.635284,720.269958 381.443604,722.770142 
	C367.506470,726.189026 355.470917,732.358948 344.942383,741.936646 
	C343.104858,743.608154 342.503601,746.078735 340.500000,747.500000 
"/>
<path fill="none" opacity="1.000000" stroke="#000000" stroke-linecap="round" stroke-linejoin="round" stroke-width="3.000000"
	d="
M421.500000,718.500000 
	C418.363525,716.494385 415.448395,718.918640 413.649139,720.208130 
	C407.350494,724.722168 399.878143,725.792664 392.979370,728.446411 
	C380.088959,733.404968 367.375275,738.871948 354.005280,742.519348 
	C350.528259,743.467896 347.215088,745.070068 343.500000,745.000000 
"/>
<path fill="none" opacity="1.000000" stroke="#000000" stroke-linecap="round" stroke-linejoin="round" stroke-width="3.000000"
	d="
M332.500000,185.500000 
	C341.798157,190.503601 351.574738,194.168472 362.002502,195.985657 
	C363.215790,196.197098 364.316925,196.332336 365.560028,196.858124 
	C370.796631,199.073090 375.652954,202.026947 381.450012,203.239105 
	C386.308441,204.254974 389.804199,208.595337 393.498566,212.001541 
	C395.839539,214.159927 398.166656,216.333328 400.500000,218.500000 
"/>
<path fill="none" opacity="1.000000" stroke="#000000" stroke-linecap="round" stroke-linejoin="round" stroke-width="2.000000"
	d="
M454.500000,791.000000 
	C449.084229,795.453857 445.910065,801.728333 441.506470,807.005371 
	C433.317017,816.819763 425.024353,826.553040 417.049438,836.539490 
	C411.624207,843.333008 406.666687,850.500000 401.500000,857.500000 
"/>
<path fill="none" opacity="1.000000" stroke="#000000" stroke-linecap="round" stroke-linejoin="round" stroke-width="2.000000"
	d="
M360.500000,702.000000 
	C338.907257,691.554077 317.175110,681.474548 293.500000,676.500000 
"/>
<path fill="none" opacity="1.000000" stroke="#000000" stroke-linecap="round" stroke-linejoin="round" stroke-width="2.000000"
	d="
M337.500000,744.500000 
	C329.522491,748.419006 323.465668,754.322327 318.934937,761.961426 
	C317.696869,764.048889 316.009644,766.357056 313.942413,767.384094 
	C303.305603,772.668701 297.561859,782.515625 291.076172,791.554626 
	C282.477173,803.538940 277.040100,817.371338 269.711365,830.121521 
	C268.325653,832.532349 268.106812,835.679199 265.500000,837.500000 
"/>
<path fill="none" opacity="1.000000" stroke="#000000" stroke-linecap="round" stroke-linejoin="round" stroke-width="2.000000"
	d="
M492.000000,774.500000 
	C494.782379,778.431824 494.117889,783.821899 498.023010,787.521729 
	C489.812744,796.279602 483.182251,805.816406 478.587372,816.537476 
	C474.664856,825.689697 471.500000,835.166687 468.000000,844.500000 
"/>
<path fill="none" opacity="1.000000" stroke="#000000" stroke-linecap="round" stroke-linejoin="round" stroke-width="2.000000"
	d="
M414.500000,727.500000 
	C407.260590,731.227356 402.602905,737.963196 396.652222,743.173828 
	C390.762421,748.331238 384.358887,752.774658 377.862396,756.776672 
	C366.592590,763.719116 356.695862,772.409485 346.180023,780.241699 
	C332.281952,790.593018 319.402222,802.377930 306.598053,814.107056 
	C298.775848,821.272522 292.057770,829.619080 285.554932,838.042419 
	C284.398743,839.539917 283.366089,841.375549 283.500000,843.500000 
"/>
<path fill="none" opacity="1.000000" stroke="#000000" stroke-linecap="round" stroke-linejoin="round" stroke-width="3.000000"
	d="
M465.500000,275.500000 
	C462.899597,267.323395 459.405914,259.291840 454.223358,252.718094 
	C449.764587,247.062378 446.196320,241.046967 442.474426,235.015793 
	C439.632568,230.410675 439.046356,224.968643 435.657654,220.383484 
	C424.383240,205.128479 411.901123,191.146057 396.422455,180.108765 
	C393.199066,177.810257 390.937958,173.483566 386.000000,174.000000 
"/>
<path fill="none" opacity="1.000000" stroke="#000000" stroke-linecap="round" stroke-linejoin="round" stroke-width="2.000000"
	d="
M642.500000,765.500000 
	C637.750610,760.082581 631.737183,756.175842 625.961548,752.053833 
	C612.414978,742.385559 598.638550,733.039917 585.041077,723.441833 
	C583.587830,722.416016 582.324951,721.435547 580.500000,721.500000 
"/>
<path fill="none" opacity="1.000000" stroke="#000000" stroke-linecap="round" stroke-linejoin="round" stroke-width="3.000000"
	d="
M513.000000,171.500000 
	C508.113281,177.129211 506.432739,184.290421 504.101501,191.035080 
	C500.228729,202.239563 496.888428,213.634018 493.558105,225.016998 
	C492.323425,229.237137 492.428925,233.763550 491.100494,238.031281 
	C490.752716,239.148514 490.082458,239.716141 489.500000,240.500000 
"/>
<path fill="none" opacity="1.000000" stroke="#000000" stroke-linecap="round" stroke-linejoin="round" stroke-width="3.000000"
	d="
M628.500000,89.500000 
	C620.653992,92.910698 612.323975,94.981552 604.461609,98.411942 
	C597.221863,101.570633 590.110352,105.785446 585.884033,111.771172 
	C580.695618,119.119469 573.184753,120.455208 566.430603,121.585190 
	C554.347961,123.606613 548.475647,131.262192 544.683899,141.071091 
	C541.196960,150.091553 539.017029,159.610565 535.076965,168.533997 
	C533.270020,172.626541 531.368530,176.541916 528.545715,180.036942 
	C527.491150,181.342758 525.675110,182.356537 526.000000,184.500000 
"/>
<path fill="none" opacity="1.000000" stroke="#000000" stroke-linecap="round" stroke-linejoin="round" stroke-width="3.000000"
	d="
M662.500000,86.500015 
	C659.666687,87.500015 656.860352,88.586166 653.995483,89.485550 
	C639.242920,94.116928 626.837036,101.895058 617.909424,114.937996 
	C614.118713,120.476082 609.333374,125.333344 605.000000,130.500015 
"/>
<path fill="none" opacity="1.000000" stroke="#000000" stroke-linecap="round" stroke-linejoin="round" stroke-width="2.000000"
	d="
M515.000000,829.500000 
	C507.773651,849.892944 502.411255,870.646790 502.452637,892.500061 
	C502.458954,895.832764 501.833374,899.166687 501.500031,902.500000 
"/>
<path fill="none" opacity="1.000000" stroke="#000000" stroke-linecap="round" stroke-linejoin="round" stroke-width="3.000000"
	d="
M303.500000,181.500000 
	C307.877045,182.997269 312.492767,181.482239 317.096100,183.809982 
	C329.996948,190.333481 342.455658,197.888412 356.463562,202.120636 
	C358.558838,202.753708 360.166656,205.000000 362.000000,206.500000 
"/>
<path fill="none" opacity="1.000000" stroke="#000000" stroke-linecap="round" stroke-linejoin="round" stroke-width="3.000000"
	d="
M541.500000,140.500000 
	C535.190308,151.987106 530.077332,164.167557 521.135925,174.122070 
	C519.669739,175.754303 519.813232,178.979370 519.534302,181.503799 
	C518.628601,189.701157 515.561768,197.281906 512.970154,204.989960 
	C510.655426,211.874405 509.989349,219.147766 507.646515,226.049744 
	C506.653442,228.975372 505.519043,231.321762 503.000000,233.000000 
"/>
<path fill="none" opacity="1.000000" stroke="#000000" stroke-linecap="round" stroke-linejoin="round" stroke-width="3.000000"
	d="
M461.500000,300.500000 
	C461.523834,306.902039 464.621674,312.522308 467.262817,317.870209 
	C470.480896,324.386200 472.155212,331.164307 473.992950,338.001892 
	C475.692810,344.326324 477.051819,350.763733 479.180878,356.937622 
	C479.777313,358.667053 478.910767,360.046967 479.500000,361.500000 
"/>
<path fill="none" opacity="1.000000" stroke="#000000" stroke-linecap="round" stroke-linejoin="round" stroke-width="2.000000"
	d="
M453.000000,685.500000 
	C438.836761,686.869812 424.581787,687.288086 410.504272,689.526917 
	C407.474854,690.008728 404.525116,691.046753 401.488739,691.404358 
	C400.104797,691.567322 398.721222,692.067139 398.603760,693.012878 
	C398.093781,697.118530 395.141541,696.433105 392.500000,696.500000 
"/>
<path fill="none" opacity="1.000000" stroke="#000000" stroke-linecap="round" stroke-linejoin="round" stroke-width="2.000000"
	d="
M312.500000,769.000000 
	C311.559326,774.505615 308.055939,778.792419 305.453552,783.474182 
	C297.355469,798.042969 286.734375,810.996155 278.348145,825.411682 
	C276.547119,828.507507 273.559479,831.322937 270.000000,833.000000 
"/>
<path fill="none" opacity="1.000000" stroke="#000000" stroke-linecap="round" stroke-linejoin="round" stroke-width="3.000000"
	d="
M306.000000,190.500000 
	C310.646545,192.402847 315.367432,193.506577 320.497589,193.614304 
	C328.256836,193.777252 333.697144,199.463135 339.966461,203.058472 
	C345.485474,206.223541 351.346619,208.489075 357.523529,209.326340 
	C361.228729,209.828568 365.051971,208.893951 369.023071,209.212860 
	C378.266907,209.955185 385.751465,214.130569 392.938721,219.088806 
	C398.079590,222.635300 402.938751,226.582474 408.500000,229.500000 
"/>
<path fill="none" opacity="1.000000" stroke="#000000" stroke-linecap="round" stroke-linejoin="round" stroke-width="2.000000"
	d="
M280.500000,848.500000 
	C275.879089,851.348755 273.948517,856.500732 271.248566,860.661316 
	C265.317749,869.800781 258.808838,878.643250 253.986023,888.493164 
	C252.576965,891.370972 250.901840,894.120605 249.541443,897.019470 
	C248.862289,898.466614 248.639404,900.139404 246.500000,900.000000 
"/>
<path fill="none" opacity="1.000000" stroke="#000000" stroke-linecap="round" stroke-linejoin="round" stroke-width="3.000000"
	d="
M713.500000,120.000000 
	C702.223877,121.809425 691.493042,126.067566 680.011597,127.125870 
	C674.565063,127.627892 669.242798,129.620117 664.528931,132.546600 
	C657.581421,136.859726 650.636292,140.797714 641.992798,140.087311 
	C640.543701,139.968201 638.960754,140.906235 637.506470,141.515366 
	C628.826721,145.150986 620.067139,148.624557 611.581116,152.670135 
	C609.810669,153.514130 608.104553,153.444214 606.460571,153.833572 
	C603.913452,154.436859 602.162109,154.956726 600.329163,157.370239 
	C596.302002,162.672821 590.499084,166.151413 584.481812,168.961060 
	C575.311584,173.242950 567.110413,178.760986 560.500000,186.500000 
"/>
<path fill="none" opacity="1.000000" stroke="#000000" stroke-linecap="round" stroke-linejoin="round" stroke-width="3.000000"
	d="
M473.500000,650.500000 
	C472.797760,659.923462 472.667633,669.302612 469.831146,678.601013 
	C468.432617,683.185669 468.179565,688.798035 469.445099,694.013306 
	C470.195862,697.107239 470.506775,700.333313 469.500000,703.500000 
"/>
<path fill="none" opacity="1.000000" stroke="#000000" stroke-linecap="round" stroke-linejoin="round" stroke-width="3.000000"
	d="
M481.500000,317.500000 
	C487.186859,321.124634 488.023407,327.281281 488.856079,333.020874 
	C489.810181,339.597473 489.502960,346.346954 490.055145,352.995422 
	C490.450684,357.757965 489.316803,362.390533 488.660583,366.951172 
	C488.331848,369.235779 490.251099,371.455200 488.500000,373.500000 
"/>
<path fill="none" opacity="1.000000" stroke="#000000" stroke-linecap="round" stroke-linejoin="round" stroke-width="2.000000"
	d="
M280.500000,830.500000 
	C270.447083,844.443481 262.746094,859.731445 254.943802,874.971252 
	C253.759781,877.283997 253.499954,880.371765 250.500000,881.500000 
"/>
<path fill="none" opacity="1.000000" stroke="#000000" stroke-linecap="round" stroke-linejoin="round" stroke-width="3.000000"
	d="
M577.000000,124.000000 
	C576.166992,124.168228 575.374817,123.870644 574.471313,124.455650 
	C557.675354,135.330261 547.007507,150.022827 545.500000,170.500000 
"/>
<path fill="none" opacity="1.000000" stroke="#000000" stroke-linecap="round" stroke-linejoin="round" stroke-width="3.000000"
	d="
M642.500000,162.500000 
	C635.666687,166.500000 628.797119,170.440140 622.022156,174.536682 
	C620.003418,175.757339 617.581970,176.748611 616.488892,180.839966 
	C626.004456,178.780670 634.214355,175.898346 641.500000,170.500000 
"/>
<path fill="none" opacity="1.000000" stroke="#000000" stroke-linecap="round" stroke-linejoin="round" stroke-width="3.000000"
	d="
M602.500000,93.500000 
	C593.638367,98.433456 585.030457,103.772499 575.567444,107.664001 
	C570.520569,109.739464 566.041504,113.323586 561.521912,116.530838 
	C542.847107,129.782990 525.977417,144.801819 512.817749,163.874252 
	C508.367920,170.323425 505.093414,177.640121 499.873047,183.384628 
	C491.693848,192.385056 487.999329,204.167648 479.768066,213.243118 
	C474.553955,218.992020 473.580353,227.385880 477.631073,234.929626 
	C478.859467,237.217300 477.877380,238.666672 477.500000,240.500000 
"/>
<path fill="none" opacity="1.000000" stroke="#000000" stroke-linecap="round" stroke-linejoin="round" stroke-width="3.000000"
	d="
M479.500000,492.500000 
	C478.345490,509.512939 479.453094,526.503723 480.000000,543.500000 
"/>
<path fill="none" opacity="1.000000" stroke="#000000" stroke-linecap="round" stroke-linejoin="round" stroke-width="2.000000"
	d="
M292.500000,676.000000 
	C280.135071,671.951843 267.714508,669.115784 254.468170,671.307617 
	C250.596542,671.948181 246.533707,672.571106 242.500000,672.500000 
"/>
<path fill="none" opacity="1.000000" stroke="#000000" stroke-linecap="round" stroke-linejoin="round" stroke-width="3.000000"
	d="
M499.000000,186.000000 
	C500.398438,187.000000 499.247009,188.378342 498.906372,188.943573 
	C493.322632,198.208389 490.898560,208.300537 489.860443,218.986450 
	C489.318665,224.563339 487.333313,230.000000 486.000000,235.500000 
"/>
<path fill="none" opacity="1.000000" stroke="#000000" stroke-linecap="round" stroke-linejoin="round" stroke-width="2.000000"
	d="
M515.500000,262.500000 
	C513.401489,267.613922 509.010559,271.041718 505.898834,275.428253 
	C498.352203,286.066528 494.621521,297.450287 497.000000,310.500000 
"/>
<path fill="none" opacity="1.000000" stroke="#000000" stroke-linecap="round" stroke-linejoin="round" stroke-width="2.000000"
	d="
M450.500000,293.500000 
	C459.394928,307.953339 465.507568,323.542572 469.525299,339.993835 
	C469.659302,340.542511 470.166656,341.000000 470.500000,341.500000 
"/>
<path fill="none" opacity="1.000000" stroke="#000000" stroke-linecap="round" stroke-linejoin="round" stroke-width="3.000000"
	d="
M466.500031,654.500000 
	C465.666687,663.333313 464.970093,672.182434 463.957245,680.995056 
	C463.128021,688.210144 462.207031,695.472168 457.500000,701.500000 
"/>
<path fill="none" opacity="1.000000" stroke="#000000" stroke-linecap="round" stroke-linejoin="round" stroke-width="3.000000"
	d="
M450.000000,693.000000 
	C441.391144,699.232971 431.826111,699.954712 421.481628,699.282593 
	C415.444153,698.890381 409.690430,696.377991 403.470245,697.299011 
	C402.221436,697.483826 399.750488,697.887268 398.500000,696.000000 
"/>
<path fill="none" opacity="1.000000" stroke="#000000" stroke-linecap="round" stroke-linejoin="round" stroke-width="3.000000"
	d="
M618.500000,107.500000 
	C609.159729,112.613083 602.519958,120.574944 596.580139,129.056107 
	C591.422852,136.419800 584.468506,141.970947 578.465637,148.468277 
	C578.235413,148.717484 577.500000,148.500000 577.000000,148.500000 
"/>
<path fill="none" opacity="1.000000" stroke="#000000" stroke-linecap="round" stroke-linejoin="round" stroke-width="3.000000"
	d="
M468.500000,297.500000 
	C463.348145,289.472748 456.133514,283.134247 450.496002,275.502960 
	C445.479919,268.712830 439.200684,263.144440 433.009491,257.489624 
	C431.559418,256.165161 430.257812,254.651062 428.000000,255.000000 
"/>
<path fill="none" opacity="1.000000" stroke="#000000" stroke-linecap="round" stroke-linejoin="round" stroke-width="3.000000"
	d="
M576.000000,134.000000 
	C570.286133,137.628922 567.917542,143.973770 564.158447,149.115814 
	C560.217346,154.506775 557.017395,160.381256 552.051147,165.054337 
	C548.364868,168.522964 547.659119,173.842102 545.000000,178.000000 
"/>
<path fill="none" opacity="1.000000" stroke="#000000" stroke-linecap="round" stroke-linejoin="round" stroke-width="3.000000"
	d="
M616.500000,102.000000 
	C611.131226,105.056717 604.865051,105.510849 599.377747,108.795738 
	C589.530396,114.690659 582.855103,123.083069 576.970825,132.481735 
	C576.123291,133.835403 576.768188,135.179352 576.500000,136.500000 
"/>
<path fill="none" opacity="1.000000" stroke="#000000" stroke-linecap="round" stroke-linejoin="round" stroke-width="3.000000"
	d="
M692.000000,89.000000 
	C690.464661,90.546364 688.822693,91.594994 686.516785,92.079727 
	C671.438843,95.249252 657.918884,102.272011 644.500000,109.500000 
"/>
<path fill="none" opacity="1.000000" stroke="#000000" stroke-linecap="round" stroke-linejoin="round" stroke-width="2.000000"
	d="
M412.500000,206.500000 
	C405.156799,195.666733 396.606079,185.918839 387.065521,176.930466 
	C379.154968,169.477798 356.349731,153.316620 346.051971,148.391357 
	C344.449249,147.624786 343.086090,147.445892 341.500000,147.500000 
"/>
<path fill="none" opacity="1.000000" stroke="#000000" stroke-linecap="round" stroke-linejoin="round" stroke-width="3.000000"
	d="
M511.500000,766.500000 
	C514.119995,762.964417 516.512207,759.255310 519.805847,756.215271 
	C516.360657,749.362488 507.185425,748.559631 504.720947,741.378540 
	C506.148254,739.444824 508.048767,740.146362 509.514832,739.429504 
	C509.754059,738.333313 508.104156,737.166687 510.265900,735.358826 
	C517.677612,739.889099 522.676208,747.565979 529.602783,752.865601 
	C536.525879,758.162415 542.890564,763.880737 548.500000,770.500000 
"/>
<path fill="none" opacity="1.000000" stroke="#000000" stroke-linecap="round" stroke-linejoin="round" stroke-width="2.000000"
	d="
M239.500000,708.500000 
	C228.777023,715.079590 223.189972,726.224060 215.497681,735.498047 
	C211.426270,740.406677 207.786087,745.718018 202.500000,749.500000 
"/>
<path fill="none" opacity="1.000000" stroke="#000000" stroke-linecap="round" stroke-linejoin="round" stroke-width="3.000000"
	d="
M704.500000,98.000000 
	C697.651489,102.443169 690.052429,104.046577 682.000000,104.006042 
	C671.242493,103.951889 661.774109,108.529358 652.601501,113.199379 
	C646.925781,116.089058 640.804932,118.837448 636.500000,124.000000 
"/>
<path fill="none" opacity="1.000000" stroke="#000000" stroke-linecap="round" stroke-linejoin="round" stroke-width="3.000000"
	d="
M652.500000,128.000000 
	C648.678162,131.971268 643.309631,132.573181 638.462158,133.857254 
	C630.617065,135.935379 622.991882,138.285995 615.972595,142.453857 
	C614.324524,143.432449 612.333313,143.833328 610.500000,144.499985 
"/>
<path fill="none" opacity="1.000000" stroke="#000000" stroke-linecap="round" stroke-linejoin="round" stroke-width="2.000000"
	d="
M377.500000,782.500000 
	C371.388153,784.721252 366.875488,788.992859 363.016174,794.012451 
	C357.286865,801.464294 351.711761,809.034973 345.954437,816.464722 
	C345.020569,817.669861 344.080292,819.361816 342.000000,819.000000 
"/>
<path fill="none" opacity="1.000000" stroke="#000000" stroke-linecap="round" stroke-linejoin="round" stroke-width="3.000000"
	d="
M647.500000,148.000000 
	C633.857788,153.314209 621.841431,161.700363 608.864197,168.230057 
	C606.114807,169.613464 603.228882,170.944733 600.500000,172.500000 
"/>
<path fill="none" opacity="1.000000" stroke="#000000" stroke-linecap="round" stroke-linejoin="round" stroke-width="2.000000"
	d="
M520.500000,847.500000 
	C514.694763,859.596619 510.333984,872.141907 508.470398,885.495850 
	C508.001404,888.856750 507.166687,892.166687 506.500031,895.500000 
"/>
<path fill="none" opacity="1.000000" stroke="#000000" stroke-linecap="round" stroke-linejoin="round" stroke-width="3.000000"
	d="
M339.500000,166.500000 
	C335.131927,165.469757 331.643646,162.478271 327.489044,161.031479 
	C313.269928,156.079926 300.220764,148.162888 285.497711,144.509171 
	C283.864960,144.103989 282.305359,142.779709 280.500000,144.000000 
"/>
<path fill="none" opacity="1.000000" stroke="#000000" stroke-linecap="round" stroke-linejoin="round" stroke-width="2.000000"
	d="
M388.500000,688.500000 
	C386.332428,688.172791 384.164856,687.845581 381.775940,687.484924 
	C380.200012,691.846680 376.932007,691.802429 373.531952,689.941650 
	C370.054443,688.038452 367.054932,685.121643 363.438538,683.651123 
	C359.715240,682.137268 355.534729,681.541748 351.492828,681.060181 
	C342.849579,680.030334 334.166656,679.333374 325.500000,678.500061 
"/>
<path fill="none" opacity="1.000000" stroke="#000000" stroke-linecap="round" stroke-linejoin="round" stroke-width="2.000000"
	d="
M458.500000,832.500000 
	C457.089142,840.263489 451.618073,845.915588 447.884399,852.433777 
	C443.897369,859.394287 439.000000,865.833313 434.500000,872.500000 
"/>
<path fill="none" opacity="1.000000" stroke="#000000" stroke-linecap="round" stroke-linejoin="round" stroke-width="3.000000"
	d="
M534.500000,258.500000 
	C529.564819,265.379822 527.255615,273.548248 523.443481,280.970978 
	C519.907654,287.855682 515.170837,293.746216 507.500000,296.500000 
"/>
<path fill="none" opacity="1.000000" stroke="#000000" stroke-linecap="round" stroke-linejoin="round" stroke-width="2.000000"
	d="
M493.499969,646.500000 
	C492.999969,655.500000 492.384521,664.495728 492.052856,673.501953 
	C491.905975,677.490417 492.333313,681.500000 492.500000,685.500000 
"/>
<path fill="none" opacity="1.000000" stroke="#000000" stroke-linecap="round" stroke-linejoin="round" stroke-width="3.000000"
	d="
M369.500000,185.500000 
	C360.468384,180.387573 351.190430,175.640594 340.971039,173.648514 
	C334.511169,172.389267 328.445679,170.788559 322.981842,167.026398 
	C317.291351,163.108185 310.873047,161.288025 304.006714,162.059830 
	C295.945679,162.965942 289.010315,158.948380 281.500000,157.500000 
"/>
<path fill="none" opacity="1.000000" stroke="#000000" stroke-linecap="round" stroke-linejoin="round" stroke-width="3.000000"
	d="
M480.000000,661.000000 
	C478.238525,671.259644 476.783081,681.574463 477.142487,691.995056 
	C477.227875,694.469604 478.508850,696.921631 477.500000,699.500000 
"/>
<path fill="none" opacity="1.000000" stroke="#000000" stroke-linecap="round" stroke-linejoin="round" stroke-width="3.000000"
	d="
M506.500000,208.500000 
	C506.622009,213.800690 503.673096,218.345398 502.871307,223.479904 
	C501.856415,229.978836 502.029968,236.647461 500.060089,243.018570 
	C499.669464,244.281891 500.006592,245.764725 498.500000,246.500000 
"/>
<path fill="none" opacity="1.000000" stroke="#000000" stroke-linecap="round" stroke-linejoin="round" stroke-width="3.000000"
	d="
M498.500000,804.500000 
	C502.024231,812.306519 503.100616,820.758850 505.048615,828.988464 
	C506.154449,833.660217 506.033600,838.851746 510.000000,842.500000 
"/>
<path fill="none" opacity="1.000000" stroke="#000000" stroke-linecap="round" stroke-linejoin="round" stroke-width="3.000000"
	d="
M544.500000,161.500000 
	C539.721863,165.791534 539.531006,171.828293 538.548279,177.508362 
	C537.996033,180.700653 537.384399,183.897003 535.440918,186.455109 
	C532.857910,189.855072 532.052307,194.134598 529.500000,197.500000 
"/>
<path fill="none" opacity="1.000000" stroke="#000000" stroke-linecap="round" stroke-linejoin="round" stroke-width="3.000000"
	d="
M290.000000,165.500000 
	C290.421509,168.593262 292.846130,167.452988 294.500092,167.455902 
	C306.135590,167.476364 316.231323,171.458939 325.000000,179.000000 
"/>
<path fill="none" opacity="1.000000" stroke="#000000" stroke-linecap="round" stroke-linejoin="round" stroke-width="2.000000"
	d="
M482.500000,429.500000 
	C482.325653,432.021210 482.223083,434.493408 481.712524,437.042572 
	C481.011993,440.539825 481.095428,444.232239 481.733459,448.044617 
	C482.624329,453.367615 481.666656,459.000000 481.500000,464.500000 
"/>
<path fill="none" opacity="1.000000" stroke="#000000" stroke-linecap="round" stroke-linejoin="round" stroke-width="2.000000"
	d="
M473.500000,591.500000 
	C473.164948,602.852844 472.951447,614.212830 471.500000,625.500000 
"/>
<path fill="none" opacity="1.000000" stroke="#000000" stroke-linecap="round" stroke-linejoin="round" stroke-width="2.000000"
	d="
M515.000000,778.500000 
	C520.049866,781.247498 525.099731,783.995056 530.153381,786.744629 
	C527.900696,797.044861 523.194031,806.338379 521.500000,816.500000 
"/>
<path fill="none" opacity="1.000000" stroke="#000000" stroke-linecap="round" stroke-linejoin="round" stroke-width="2.000000"
	d="
M542.000000,781.500000 
	C540.554565,782.855164 540.600647,784.806946 539.552551,787.219543 
	C548.707886,792.483215 557.853943,797.741638 567.000000,803.000000 
"/>
<path fill="none" opacity="1.000000" stroke="#000000" stroke-linecap="round" stroke-linejoin="round" stroke-width="2.000000"
	d="
M365.500000,779.000000 
	C354.703247,790.403625 348.431061,804.502197 342.019318,818.508850 
	C340.743011,821.296997 339.108612,823.794617 337.000000,826.000000 
"/>
<path fill="none" opacity="1.000000" stroke="#000000" stroke-linecap="round" stroke-linejoin="round" stroke-width="3.000000"
	d="
M697.500000,124.500000 
	C694.497559,129.746368 689.943787,132.496597 684.010925,133.560928 
	C677.215881,134.779968 672.253235,139.685730 666.500000,143.000000 
"/>
<path fill="none" opacity="1.000000" stroke="#000000" stroke-linecap="round" stroke-linejoin="round" stroke-width="3.000000"
	d="
M513.500000,279.500000 
	C512.201355,282.871918 509.817566,285.275574 507.058746,287.570618 
	C503.917358,290.183960 502.182556,293.292938 501.584167,297.946533 
	C501.016449,302.361511 501.467102,307.759796 497.613373,311.613373 
	C497.105560,312.121155 496.668732,314.166656 497.500000,315.500000 
"/>
<path fill="none" opacity="1.000000" stroke="#000000" stroke-linecap="round" stroke-linejoin="round" stroke-width="3.000000"
	d="
M543.500000,133.500000 
	C539.500000,138.000000 535.154541,142.245148 531.594971,147.070053 
	C527.864990,152.125885 526.295715,158.099854 527.000000,164.500000 
"/>
<path fill="none" opacity="1.000000" stroke="#000000" stroke-linecap="round" stroke-linejoin="round" stroke-width="3.000000"
	d="
M448.500000,725.500000 
	C445.568024,728.009644 442.818665,730.634338 439.036713,732.095093 
	C435.002441,733.653259 431.629639,736.833862 428.711914,739.714661 
	C424.261353,744.108643 418.327515,744.509888 413.500000,747.500000 
"/>
<path fill="none" opacity="1.000000" stroke="#000000" stroke-linecap="round" stroke-linejoin="round" stroke-width="3.000000"
	d="
M591.500000,177.500000 
	C589.313843,176.706253 586.928223,178.200729 586.171509,179.138397 
	C581.279724,185.199585 573.041748,186.306839 567.932007,191.938293 
	C567.081116,192.876038 565.329163,193.415512 564.000977,193.402313 
	C562.024719,193.382706 560.544861,193.899750 559.509888,195.506378 
	C555.196838,202.201614 548.420532,206.419434 542.954773,211.955368 
	C540.905151,214.031387 539.034973,216.217758 538.628174,219.018616 
	C538.380859,220.721146 537.587830,221.858871 536.466003,222.433624 
	C529.930115,225.782150 525.792847,231.787048 520.500000,236.500000 
"/>
<path fill="none" opacity="1.000000" stroke="#000000" stroke-linecap="round" stroke-linejoin="round" stroke-width="2.000000"
	d="
M827.500000,677.500000 
	C819.166687,679.000000 810.807373,680.375610 802.521118,682.101501 
	C800.797974,682.460510 799.156311,682.229858 797.500000,682.500000 
"/>
<path fill="none" opacity="1.000000" stroke="#000000" stroke-linecap="round" stroke-linejoin="round" stroke-width="2.000000"
	d="
M317.500000,795.500000 
	C308.166687,805.166687 298.833344,814.833374 289.500000,824.500000 
"/>
<path fill="none" opacity="1.000000" stroke="#000000" stroke-linecap="round" stroke-linejoin="round" stroke-width="3.000000"
	d="
M548.000000,273.000000 
	C542.141724,279.617706 533.651550,283.056061 527.881409,289.900055 
	C525.458740,292.773651 522.284241,295.035126 520.500000,298.500000 
"/>
<path fill="none" opacity="1.000000" stroke="#000000" stroke-linecap="round" stroke-linejoin="round" stroke-width="3.000000"
	d="
M711.500000,112.000000 
	C704.610474,114.168846 697.313965,114.877609 690.879639,118.802650 
	C688.814697,120.062279 685.333313,119.000000 682.500000,119.000000 
"/>
<path fill="none" opacity="1.000000" stroke="#000000" stroke-linecap="round" stroke-linejoin="round" stroke-width="2.000000"
	d="
M486.500000,502.500000 
	C484.717957,512.116699 485.786865,521.831726 485.500000,531.500000 
"/>
<path fill="none" opacity="1.000000" stroke="#000000" stroke-linecap="round" stroke-linejoin="round" stroke-width="2.000000"
	d="
M509.500000,705.500000 
	C509.600677,706.183167 509.357483,706.836792 509.972382,707.524719 
	C516.451782,714.773315 520.078979,723.583313 523.508789,732.496643 
	C523.775208,733.189026 524.166687,733.833313 524.500000,734.500000 
"/>
<path fill="none" opacity="1.000000" stroke="#000000" stroke-linecap="round" stroke-linejoin="round" stroke-width="3.000000"
	d="
M467.000000,725.000000 
	C459.592896,726.564453 453.750458,731.467102 447.733063,735.360229 
	C443.222839,738.278198 439.527222,742.850403 434.504211,745.507996 
	C430.483429,747.635315 426.346710,749.602417 422.571838,752.108215 
	C420.951385,753.183838 419.515656,752.737061 418.000000,753.000000 
"/>
<path fill="none" opacity="1.000000" stroke="#000000" stroke-linecap="round" stroke-linejoin="round" stroke-width="2.000000"
	d="
M478.000000,755.500000 
	C479.294495,757.808960 480.681061,760.054138 482.798126,761.745361 
	C478.969116,771.697510 473.600525,780.621277 470.500000,790.500000 
"/>
<path fill="none" opacity="1.000000" stroke="#000000" stroke-linecap="round" stroke-linejoin="round" stroke-width="3.000000"
	d="
M358.500000,785.500000 
	C349.328552,787.434692 341.362213,790.895142 338.469391,800.991211 
	C338.021637,802.553955 337.166656,804.000000 336.499969,805.500000 
"/>
<path fill="none" opacity="1.000000" stroke="#000000" stroke-linecap="round" stroke-linejoin="round" stroke-width="3.000000"
	d="
M416.500000,203.500000 
	C419.816681,209.659348 424.770721,214.585388 429.650970,219.345215 
	C433.252258,222.857620 434.860138,228.021072 439.500000,230.500000 
"/>
<path fill="none" opacity="1.000000" stroke="#000000" stroke-linecap="round" stroke-linejoin="round" stroke-width="3.000000"
	d="
M350.500000,156.500000 
	C341.750641,146.318665 329.780426,141.860443 317.475098,138.081039 
	C316.328583,137.728882 314.833344,136.726242 313.500000,138.000000 
"/>
<path fill="none" opacity="1.000000" stroke="#000000" stroke-linecap="round" stroke-linejoin="round" stroke-width="3.000000"
	d="
M544.500000,774.500000 
	C543.833862,776.333557 543.167725,778.167053 542.361389,780.386536 
	C549.569641,785.072266 555.515747,791.666809 563.500000,795.500000 
"/>
<path fill="none" opacity="1.000000" stroke="#000000" stroke-linecap="round" stroke-linejoin="round" stroke-width="2.000000"
	d="
M474.500000,547.500000 
	C473.134857,556.362244 473.869965,565.161194 474.891022,574.012573 
	C475.363190,578.105591 474.666656,582.333313 474.500000,586.500000 
"/>
<path fill="none" opacity="1.000000" stroke="#000000" stroke-linecap="round" stroke-linejoin="round" stroke-width="3.000000"
	d="
M403.500000,744.500000 
	C395.833344,751.500000 388.091034,758.419983 380.549652,765.552490 
	C378.494598,767.496155 375.582336,768.309814 375.015289,772.433350 
	C374.689667,774.801147 369.691803,777.629517 366.445770,778.180664 
	C363.235596,778.725647 359.923187,780.065186 356.500000,779.500000 
"/>
<path fill="none" opacity="1.000000" stroke="#000000" stroke-linecap="round" stroke-linejoin="round" stroke-width="3.000000"
	d="
M641.000000,185.000000 
	C646.074524,184.564865 648.999878,180.977600 652.292969,177.677231 
	C647.908203,175.024673 641.636658,179.114807 640.500000,185.000000 
"/>
<path fill="none" opacity="1.000000" stroke="#000000" stroke-linecap="round" stroke-linejoin="round" stroke-width="2.000000"
	d="
M489.500031,748.500000 
	C492.333344,755.833313 495.087128,763.199280 498.068634,770.471863 
	C498.649750,771.889282 498.231781,773.179382 498.500000,774.500000 
"/>
<path fill="none" opacity="1.000000" stroke="#000000" stroke-linecap="round" stroke-linejoin="round" stroke-width="3.000000"
	d="
M673.500000,81.000000 
	C668.864319,79.501961 664.696411,79.117004 659.892212,81.807510 
	C653.280334,85.510284 645.402527,85.385429 637.987854,85.759438 
	C635.194275,85.900352 633.076599,87.383034 630.500000,87.500000 
"/>
<path fill="none" opacity="1.000000" stroke="#000000" stroke-linecap="round" stroke-linejoin="round" stroke-width="2.000000"
	d="
M529.000000,759.500000 
	C525.800598,764.836060 521.443054,769.259094 517.464844,773.970276 
	C514.604248,777.357910 513.453247,780.634338 515.409973,785.039978 
	C517.477600,789.695190 518.682007,794.727112 520.576355,799.469482 
	C521.307678,801.300171 521.706604,803.622009 524.000000,804.500000 
"/>
<path fill="none" opacity="1.000000" stroke="#000000" stroke-linecap="round" stroke-linejoin="round" stroke-width="2.000000"
	d="
M499.500000,798.500000 
	C496.445068,806.875793 491.828979,814.657715 489.997589,823.499512 
	C489.513580,825.836121 489.000031,828.166687 488.500031,830.500000 
"/>
<path fill="none" opacity="1.000000" stroke="#000000" stroke-linecap="round" stroke-linejoin="round" stroke-width="2.000000"
	d="
M605.500000,865.500000 
	C606.857300,874.569519 609.561890,883.224548 613.500000,891.500000 
"/>
<path fill="none" opacity="1.000000" stroke="#000000" stroke-linecap="round" stroke-linejoin="round" stroke-width="3.000000"
	d="
M243.000000,142.500000 
	C249.252792,144.967499 255.544998,147.309601 261.553009,150.396851 
	C263.535797,151.415710 266.057556,152.360794 268.500000,151.000000 
"/>
<path fill="none" opacity="1.000000" stroke="#000000" stroke-linecap="round" stroke-linejoin="round" stroke-width="5.000000"
	d="
M537.500000,736.000000 
	C543.655029,743.714600 550.219177,751.118469 555.443726,759.534912 
	C555.688538,759.929260 556.748901,760.833313 555.500000,761.500000 
"/>
<path fill="none" opacity="1.000000" stroke="#000000" stroke-linecap="round" stroke-linejoin="round" stroke-width="2.000000"
	d="
M486.500000,534.500000 
	C486.833344,542.833313 487.166687,551.166687 487.500000,559.500000 
"/>
<path fill="none" opacity="1.000000" stroke="#000000" stroke-linecap="round" stroke-linejoin="round" stroke-width="2.000000"
	d="
M292.500000,677.000000 
	C284.166687,680.166687 275.833344,683.333374 267.500000,686.500000 
"/>
<path fill="none" opacity="1.000000" stroke="#000000" stroke-linecap="round" stroke-linejoin="round" stroke-width="3.000000"
	d="
M548.500000,263.500000 
	C547.355286,267.206726 544.682556,269.410217 541.566833,271.595337 
	C536.156433,275.389709 529.899414,278.319855 526.500000,284.500000 
"/>
<path fill="none" opacity="1.000000" stroke="#000000" stroke-linecap="round" stroke-linejoin="round" stroke-width="2.000000"
	d="
M554.000000,192.000000 
	C548.390015,200.900528 541.568542,208.744202 533.500000,215.500000 
"/>
<path fill="none" opacity="1.000000" stroke="#000000" stroke-linecap="round" stroke-linejoin="round" stroke-width="2.000000"
	d="
M465.500000,339.500000 
	C467.737030,347.719269 469.568481,356.019623 470.500000,364.500000 
"/>
<path fill="none" opacity="1.000000" stroke="#000000" stroke-linecap="round" stroke-linejoin="round" stroke-width="3.000000"
	d="
M482.499969,250.999985 
	C481.999969,251.666641 480.965149,252.448486 481.080200,252.982712 
	C482.788361,260.915253 477.644867,267.501953 476.717560,274.964905 
	C476.235474,278.845123 476.201630,282.655212 476.000000,286.500000 
"/>
<path fill="none" opacity="1.000000" stroke="#000000" stroke-linecap="round" stroke-linejoin="round" stroke-width="3.000000"
	d="
M313.500000,178.500000 
	C307.549286,178.184738 301.450989,178.369263 296.028809,175.446548 
	C291.711639,173.119461 286.755585,175.153244 282.500000,173.000000 
"/>
<path fill="none" opacity="1.000000" stroke="#000000" stroke-linecap="round" stroke-linejoin="round" stroke-width="2.000000"
	d="
M493.500000,581.500000 
	C494.179749,589.612183 493.202301,597.586304 491.500000,605.500000 
"/>
<path fill="none" opacity="1.000000" stroke="#000000" stroke-linecap="round" stroke-linejoin="round" stroke-width="3.000000"
	d="
M245.500000,138.000000 
	C250.645370,141.469345 256.181854,143.324265 262.505859,142.547806 
	C264.910522,142.252579 267.435852,142.243820 269.500000,144.000000 
"/>
<path fill="none" opacity="1.000000" stroke="#000000" stroke-linecap="round" stroke-linejoin="round" stroke-width="3.000000"
	d="
M701.500000,96.000000 
	C696.540588,98.136482 691.445251,99.740486 686.000122,100.002914 
	C683.159424,100.139809 680.418274,100.503197 679.000000,103.500000 
"/>
<path fill="none" opacity="1.000000" stroke="#000000" stroke-linecap="round" stroke-linejoin="round" stroke-width="3.000000"
	d="
M483.500000,686.500000 
	C483.741211,694.523926 484.984467,702.236450 482.971161,710.613220 
	C480.695740,720.080505 479.985352,730.625793 485.500000,740.000000 
"/>
<path fill="none" opacity="1.000000" stroke="#000000" stroke-linecap="round" stroke-linejoin="round" stroke-width="2.000000"
	d="
M257.500000,858.500000 
	C256.500000,861.666687 255.845734,864.997681 254.433319,867.968323 
	C250.617432,875.993958 249.326843,884.828308 246.055603,893.022217 
	C244.892670,895.935181 243.184494,898.441345 241.481552,900.987671 
	C240.736908,902.101074 239.704834,902.562378 237.976410,901.097412 
	C238.763947,898.726501 239.631973,896.113281 240.500015,893.500000 
"/>
<path fill="none" opacity="1.000000" stroke="#000000" stroke-linecap="round" stroke-linejoin="round" stroke-width="2.000000"
	d="
M487.500000,476.500000 
	C487.500000,484.166656 487.500000,491.833344 487.500000,499.500000 
"/>
<path fill="none" opacity="1.000000" stroke="#000000" stroke-linecap="round" stroke-linejoin="round" stroke-width="2.000000"
	d="
M548.500000,772.500000 
	C553.000000,778.500000 557.895874,784.248779 561.902649,790.561768 
	C567.257812,798.999268 570.310364,808.364136 570.500000,818.500000 
"/>
<path fill="none" opacity="1.000000" stroke="#000000" stroke-linecap="round" stroke-linejoin="round" stroke-width="3.000000"
	d="
M310.500000,158.500000 
	C302.620636,157.085999 295.596405,152.948746 287.580505,151.541489 
	C284.978699,151.084732 281.212250,147.231613 279.368896,143.347809 
	C276.417999,146.346802 272.673950,142.572815 269.155823,144.060806 
	C275.209442,151.785568 279.441193,153.504715 285.500000,151.000000 
"/>
<path fill="none" opacity="1.000000" stroke="#000000" stroke-linecap="round" stroke-linejoin="round" stroke-width="2.000000"
	d="
M476.000000,472.000000 
	C477.702209,479.541534 474.578186,486.975800 475.500000,494.500000 
"/>
<path fill="none" opacity="1.000000" stroke="#000000" stroke-linecap="round" stroke-linejoin="round" stroke-width="3.000000"
	d="
M534.500000,762.500000 
	C534.836853,769.360596 533.747986,775.845947 529.465149,782.054260 
	C525.817627,779.247009 522.408813,776.623474 519.000000,774.000000 
"/>
<path fill="none" opacity="1.000000" stroke="#000000" stroke-linecap="round" stroke-linejoin="round" stroke-width="3.000000"
	d="
M468.000000,264.000000 
	C469.970215,268.805969 470.293732,273.939331 471.014862,278.997894 
	C471.348145,281.335693 471.095306,283.937714 473.500000,285.500000 
"/>
<path fill="none" opacity="1.000000" stroke="#000000" stroke-linecap="round" stroke-linejoin="round" stroke-width="2.000000"
	d="
M477.500000,751.500000 
	C476.082306,755.890686 473.214294,759.402832 470.474609,762.980530 
	C469.986786,763.617554 469.141052,763.969543 468.504120,764.504944 
	C463.379639,768.812256 461.524353,773.829590 463.885162,780.540405 
	C465.620148,785.472168 465.371429,790.936157 466.897095,796.030823 
	C467.387207,797.667480 466.666687,799.666687 466.500031,801.500000 
"/>
<path fill="none" opacity="1.000000" stroke="#000000" stroke-linecap="round" stroke-linejoin="round" stroke-width="3.000000"
	d="
M509.500000,807.500000 
	C510.779541,813.740173 512.658875,819.774902 515.462097,825.518494 
	C515.885315,826.385620 516.713074,827.500000 515.500000,828.500000 
"/>
<path fill="none" opacity="1.000000" stroke="#000000" stroke-linecap="round" stroke-linejoin="round" stroke-width="3.000000"
	d="
M642.500000,107.500000 
	C638.544861,110.073418 634.776062,112.899712 630.017639,114.071693 
	C626.929016,114.832436 624.131226,116.476624 622.000000,119.000000 
"/>
<path fill="none" opacity="1.000000" stroke="#000000" stroke-linecap="round" stroke-linejoin="round" stroke-width="3.000000"
	d="
M481.500000,579.500000 
	C480.625824,586.500000 480.932068,593.500000 481.500000,600.500000 
"/>
<path fill="none" opacity="1.000000" stroke="#000000" stroke-linecap="round" stroke-linejoin="round" stroke-width="3.000000"
	d="
M523.500000,251.500000 
	C515.537109,256.265320 509.897430,263.627960 503.727203,270.212891 
	C500.129883,274.052002 497.444061,279.260101 495.451294,284.481415 
	C495.142578,285.290344 494.948730,286.615417 493.500000,286.500000 
"/>
<path fill="none" opacity="1.000000" stroke="#000000" stroke-linecap="round" stroke-linejoin="round" stroke-width="2.000000"
	d="
M492.500000,541.500000 
	C492.833313,548.500000 493.166656,555.500000 493.500000,562.500000 
"/>
<path fill="none" opacity="1.000000" stroke="#000000" stroke-linecap="round" stroke-linejoin="round" stroke-width="3.000000"
	d="
M686.500000,115.500000 
	C681.294434,118.742027 675.457092,119.669121 669.498047,119.959953 
	C666.832153,120.090065 665.036743,121.654922 662.977356,122.964378 
	C658.892761,125.561501 654.649841,127.058647 649.509521,127.252563 
	C644.133545,127.455383 638.813599,129.596680 633.524353,131.086349 
	C632.843994,131.277969 632.183167,131.399307 631.500000,131.500000 
"/>
<path fill="none" opacity="1.000000" stroke="#000000" stroke-linecap="round" stroke-linejoin="round" stroke-width="3.000000"
	d="
M479.000000,237.500000 
	C484.481964,234.874969 484.997131,235.237183 490.039215,241.970642 
	C494.501892,247.930374 495.068756,254.507263 494.000000,261.500000 
"/>
<path fill="none" opacity="1.000000" stroke="#000000" stroke-linecap="round" stroke-linejoin="round" stroke-width="2.000000"
	d="
M606.500000,147.500000 
	C599.404663,150.785583 592.799683,154.888397 586.500000,159.500000 
"/>
<path fill="none" opacity="1.000000" stroke="#000000" stroke-linecap="round" stroke-linejoin="round" stroke-width="3.000000"
	d="
M276.000000,130.000000 
	C276.562439,132.027878 278.483551,132.519165 280.019989,132.924240 
	C285.698151,134.421204 289.687988,138.630295 294.500000,141.500000 
"/>
<path fill="none" opacity="1.000000" stroke="#000000" stroke-linecap="round" stroke-linejoin="round" stroke-width="3.000000"
	d="
M321.500000,160.000000 
	C320.949707,161.186783 320.920197,161.845932 322.463959,162.576202 
	C326.570038,164.518600 330.507660,166.819366 334.496368,169.006638 
	C336.177582,169.928558 338.334137,170.260880 339.000000,172.500000 
"/>
<path fill="none" opacity="1.000000" stroke="#000000" stroke-linecap="round" stroke-linejoin="round" stroke-width="3.000000"
	d="
M511.500000,692.500000 
	C521.878296,697.684753 531.542419,704.094604 541.469910,710.050171 
	C542.202209,710.489624 542.816833,710.399292 543.500000,710.500000 
"/>
<path fill="none" opacity="1.000000" stroke="#000000" stroke-linecap="round" stroke-linejoin="round" stroke-width="3.000000"
	d="
M516.500000,175.500000 
	C513.763428,181.945709 512.011963,188.686935 510.500000,195.500000 
"/>
<path fill="none" opacity="1.000000" stroke="#000000" stroke-linecap="round" stroke-linejoin="round" stroke-width="3.000000"
	d="
M680.000000,160.000000 
	C674.948364,164.376678 668.056580,164.679230 662.420654,167.859344 
	C660.941284,168.694061 658.440918,168.375580 656.500000,167.500000 
"/>
<path fill="none" opacity="1.000000" stroke="#000000" stroke-linecap="round" stroke-linejoin="round" stroke-width="3.000000"
	d="
M275.500000,174.500000 
	C278.243896,176.838791 281.334900,177.722061 285.003296,177.596771 
	C288.220062,177.486923 291.468994,178.188889 294.500000,179.500000 
"/>
<path fill="none" opacity="1.000000" stroke="#000000" stroke-linecap="round" stroke-linejoin="round" stroke-width="3.000000"
	d="
M464.500000,239.500000 
	C461.837830,239.983978 461.529694,242.184845 462.091644,243.971161 
	C463.547729,248.599518 464.603638,253.433090 467.280914,257.874603 
	C471.966461,255.404617 473.801819,251.467636 475.045471,247.012695 
	C475.500977,245.380844 475.552948,243.381271 477.500000,242.500000 
"/>
<path fill="none" opacity="1.000000" stroke="#000000" stroke-linecap="round" stroke-linejoin="round" stroke-width="3.000000"
	d="
M489.500000,722.500000 
	C488.791595,728.917725 489.405304,735.579041 486.000000,741.500000 
"/>
<path fill="none" opacity="1.000000" stroke="#000000" stroke-linecap="round" stroke-linejoin="round" stroke-width="3.000000"
	d="
M576.500000,205.500000 
	C571.920959,211.734543 564.502625,214.419952 559.000000,219.500000 
"/>
<path fill="none" opacity="1.000000" stroke="#000000" stroke-linecap="round" stroke-linejoin="round" stroke-width="2.000000"
	d="
M397.500000,756.500000 
	C390.563660,760.672729 388.122284,768.209412 383.968994,774.479431 
	C381.437012,778.301819 377.383972,781.263550 377.500000,786.500000 
"/>
<path fill="none" opacity="1.000000" stroke="#000000" stroke-linecap="round" stroke-linejoin="round" stroke-width="3.000000"
	d="
M265.000000,130.000000 
	C266.258026,133.215149 269.773865,132.476593 272.106628,133.813995 
	C275.172302,135.571564 279.000000,136.000000 282.500000,137.000000 
"/>
<path fill="none" opacity="1.000000" stroke="#000000" stroke-linecap="round" stroke-linejoin="round" stroke-width="3.000000"
	d="
M528.500000,185.500000 
	C529.587158,190.917435 526.908447,195.580185 525.515564,200.504395 
	C525.241272,201.473969 525.166626,202.500000 525.000000,203.500000 
"/>
<path fill="none" opacity="1.000000" stroke="#000000" stroke-linecap="round" stroke-linejoin="round" stroke-width="4.000000"
	d="
M320.500000,146.500000 
	C317.599670,144.733658 315.444519,142.273392 313.456512,139.531525 
	C310.437134,135.367142 305.159729,135.471100 300.922089,133.684814 
	C299.350159,133.022186 297.153381,131.326096 295.000000,133.000000 
"/>
<path fill="none" opacity="1.000000" stroke="#000000" stroke-linecap="round" stroke-linejoin="round" stroke-width="2.000000"
	d="
M449.000000,737.000000 
	C450.761353,744.306152 454.815338,750.455017 459.072235,756.448730 
	C460.017731,757.779968 460.523346,758.970398 460.500000,760.500000 
"/>
<path fill="none" opacity="1.000000" stroke="#000000" stroke-linecap="round" stroke-linejoin="round" stroke-width="2.000000"
	d="
M480.500000,401.500000 
	C480.395599,406.515259 480.500336,411.493530 479.654663,416.526001 
	C478.943939,420.755341 479.168427,425.243469 480.500000,429.500000 
"/>
<path fill="none" opacity="1.000000" stroke="#000000" stroke-linecap="round" stroke-linejoin="round" stroke-width="2.000000"
	d="
M296.500000,765.500000 
	C290.023743,766.970764 285.456329,772.047119 279.500000,774.500000 
"/>
<path fill="none" opacity="1.000000" stroke="#000000" stroke-linecap="round" stroke-linejoin="round" stroke-width="2.000000"
	d="
M460.000000,727.250000 
	C459.181152,722.111328 457.557465,720.632690 453.011292,721.555664 
	C449.454865,722.277649 446.000000,723.500000 442.500000,724.500000 
"/>
<path fill="none" opacity="1.000000" stroke="#000000" stroke-linecap="round" stroke-linejoin="round" stroke-width="2.000000"
	d="
M403.500000,698.000000 
	C408.193939,701.132141 413.830200,702.101257 419.033447,702.717651 
	C426.737183,703.630310 434.575409,704.154114 442.547943,702.777649 
	C448.115143,701.816467 449.696808,698.192078 452.000000,694.500000 
"/>
<path fill="none" opacity="1.000000" stroke="#000000" stroke-linecap="round" stroke-linejoin="round" stroke-width="3.000000"
	d="
M566.000000,252.000000 
	C560.823425,256.845551 554.667358,260.774811 551.500000,267.500000 
"/>
<path fill="none" opacity="1.000000" stroke="#000000" stroke-linecap="round" stroke-linejoin="round" stroke-width="3.000000"
	d="
M465.500000,297.500000 
	C469.166718,303.708313 474.495026,308.462677 479.500000,313.500000 
"/>
<path fill="none" opacity="1.000000" stroke="#000000" stroke-linecap="round" stroke-linejoin="round" stroke-width="3.000000"
	d="
M462.000000,729.000000 
	C463.166656,730.833313 464.169128,732.800476 465.532471,734.473572 
	C468.886444,738.589600 468.699799,742.687012 466.015686,747.009766 
	C464.008759,750.241943 463.039978,754.055298 460.500000,757.000000 
"/>
<path fill="none" opacity="1.000000" stroke="#000000" stroke-linecap="round" stroke-linejoin="round" stroke-width="2.000000"
	d="
M625.500000,85.500000 
	C620.166687,87.500000 614.833313,89.500000 609.500000,91.500000 
"/>
<path fill="none" opacity="1.000000" stroke="#000000" stroke-linecap="round" stroke-linejoin="round" stroke-width="2.000000"
	d="
M395.500000,865.500000 
	C389.521027,874.181213 382.067291,881.841492 377.500000,891.500000 
"/>
<path fill="none" opacity="1.000000" stroke="#000000" stroke-linecap="round" stroke-linejoin="round" stroke-width="3.000000"
	d="
M438.500000,708.500000 
	C434.014954,713.025757 429.362732,717.396362 425.500000,722.500000 
"/>
<path fill="none" opacity="1.000000" stroke="#000000" stroke-linecap="round" stroke-linejoin="round" stroke-width="3.000000"
	d="
M487.500000,590.500000 
	C487.778015,595.833313 486.081879,601.166687 487.500000,606.500000 
"/>
<path fill="none" opacity="1.000000" stroke="#000000" stroke-linecap="round" stroke-linejoin="round" stroke-width="3.000000"
	d="
M499.000000,747.000000 
	C501.614349,748.437683 503.313507,750.217041 504.155090,753.459778 
	C505.680878,759.338989 508.706512,764.676758 512.500000,769.500000 
"/>
<path fill="none" opacity="1.000000" stroke="#000000" stroke-linecap="round" stroke-linejoin="round" stroke-width="3.000000"
	d="
M530.500000,235.000000 
	C527.752502,236.476654 525.779236,238.394897 524.360779,241.435043 
	C522.193054,246.081024 516.787964,247.750122 513.500000,251.500000 
"/>
<path fill="none" opacity="1.000000" stroke="#000000" stroke-linecap="round" stroke-linejoin="round" stroke-width="3.000000"
	d="
M677.500000,148.500000 
	C673.119080,152.689041 666.429382,152.404831 662.000000,156.500000 
"/>
<path fill="none" opacity="1.000000" stroke="#000000" stroke-linecap="round" stroke-linejoin="round" stroke-width="3.000000"
	d="
M594.500000,191.500000 
	C588.940857,195.188171 584.118713,199.726730 579.500000,204.500000 
"/>
<path fill="none" opacity="1.000000" stroke="#000000" stroke-linecap="round" stroke-linejoin="round" stroke-width="2.000000"
	d="
M471.500000,346.500000 
	C472.375519,351.472168 473.982910,356.346710 473.500000,361.500000 
"/>
<path fill="none" opacity="1.000000" stroke="#000000" stroke-linecap="round" stroke-linejoin="round" stroke-width="2.000000"
	d="
M157.499985,715.500000 
	C152.499985,718.166626 147.499985,720.833313 142.499985,723.500000 
"/>
<path fill="none" opacity="1.000000" stroke="#000000" stroke-linecap="round" stroke-linejoin="round" stroke-width="2.000000"
	d="
M491.500000,423.500000 
	C491.833344,428.500000 492.166656,433.500000 492.500000,438.500000 
"/>
<path fill="none" opacity="1.000000" stroke="#000000" stroke-linecap="round" stroke-linejoin="round" stroke-width="2.000000"
	d="
M479.500000,560.500000 
	C479.833344,565.500000 480.166687,570.500000 480.500000,575.500000 
"/>
<path fill="none" opacity="1.000000" stroke="#000000" stroke-linecap="round" stroke-linejoin="round" stroke-width="2.000000"
	d="
M560.500000,770.500000 
	C564.499390,774.905273 567.024719,780.468689 571.500000,784.500000 
"/>
<path fill="none" opacity="1.000000" stroke="#000000" stroke-linecap="round" stroke-linejoin="round" stroke-width="3.000000"
	d="
M251.500000,158.000000 
	C257.729645,158.581482 263.572113,160.632553 269.549500,162.325195 
	C275.029480,163.877014 280.188049,166.104477 285.500000,168.000000 
"/>
<path fill="none" opacity="1.000000" stroke="#000000" stroke-linecap="round" stroke-linejoin="round" stroke-width="3.000000"
	d="
M470.500000,636.500000 
	C468.114441,640.869751 468.975555,645.935242 467.500000,650.500000 
"/>
<path fill="none" opacity="1.000000" stroke="#000000" stroke-linecap="round" stroke-linejoin="round" stroke-width="2.000000"
	d="
M484.500000,664.500000 
	C484.525421,669.192322 484.305634,673.867065 483.500000,678.500000 
"/>
<path fill="none" opacity="1.000000" stroke="#000000" stroke-linecap="round" stroke-linejoin="round" stroke-width="3.000000"
	d="
M285.500000,181.500000 
	C290.166656,182.500000 294.833344,183.500000 299.500000,184.500000 
"/>
<path fill="none" opacity="1.000000" stroke="#000000" stroke-linecap="round" stroke-linejoin="round" stroke-width="3.000000"
	d="
M478.500031,602.500000 
	C478.166687,607.166687 477.833374,611.833313 477.500031,616.500000 
"/>
<path fill="none" opacity="1.000000" stroke="#000000" stroke-linecap="round" stroke-linejoin="round" stroke-width="3.000000"
	d="
M271.500000,842.000000 
	C268.808533,839.353516 267.362946,842.863953 266.142517,843.706421 
	C263.202637,845.735901 261.000000,848.833313 258.500000,851.500000 
"/>
<path fill="none" opacity="1.000000" stroke="#000000" stroke-linecap="round" stroke-linejoin="round" stroke-width="3.000000"
	d="
M380.500000,687.000000 
	C375.907043,685.753906 371.387421,684.097107 366.500000,684.500000 
"/>
<path fill="none" opacity="1.000000" stroke="#000000" stroke-linecap="round" stroke-linejoin="round" stroke-width="2.000000"
	d="
M176.499985,705.499939 
	C171.833313,707.833313 167.166656,710.166626 162.499985,712.499939 
"/>
<path fill="none" opacity="1.000000" stroke="#000000" stroke-linecap="round" stroke-linejoin="round" stroke-width="2.000000"
	d="
M523.500000,828.500000 
	C523.853516,833.211426 525.699829,837.709534 525.500000,842.500000 
"/>
<path fill="none" opacity="1.000000" stroke="#000000" stroke-linecap="round" stroke-linejoin="round" stroke-width="3.000000"
	d="
M608.500000,189.500031 
	C604.833374,193.166687 601.166687,196.833359 597.500000,200.500031 
"/>
<path fill="none" opacity="1.000000" stroke="#000000" stroke-linecap="round" stroke-linejoin="round" stroke-width="3.000000"
	d="
M522.500000,158.500000 
	C520.985413,163.614075 518.015686,167.636780 513.500000,170.500000 
"/>
<path fill="none" opacity="1.000000" stroke="#000000" stroke-linecap="round" stroke-linejoin="round" stroke-width="3.000000"
	d="
M480.500000,742.500000 
	C482.166656,746.833313 483.833344,751.166687 485.500000,755.500000 
"/>
<path fill="none" opacity="1.000000" stroke="#000000" stroke-linecap="round" stroke-linejoin="round" stroke-width="3.000000"
	d="
M430.500000,727.500000 
	C422.755951,730.345215 413.952484,731.071655 408.500000,738.500000 
"/>
<path fill="none" opacity="1.000000" stroke="#000000" stroke-linecap="round" stroke-linejoin="round" stroke-width="3.000000"
	d="
M481.500000,546.500000 
	C480.347229,550.947632 482.898407,555.110352 482.500000,559.500000 
"/>
<path fill="none" opacity="1.000000" stroke="#000000" stroke-linecap="round" stroke-linejoin="round" stroke-width="2.000000"
	d="
M389.000000,764.000000 
	C385.779938,764.586548 384.090118,767.479004 381.484711,768.973328 
	C379.791779,769.944153 378.470428,772.085388 376.000000,771.000000 
"/>
<path fill="none" opacity="1.000000" stroke="#000000" stroke-linecap="round" stroke-linejoin="round" stroke-width="3.000000"
	d="
M553.000000,219.000000 
	C546.965515,224.810486 539.636230,229.194275 534.412292,235.931992 
	C533.891724,236.603348 534.339661,237.057663 534.000000,237.500000 
"/>
<path fill="none" opacity="1.000000" stroke="#000000" stroke-linecap="round" stroke-linejoin="round" stroke-width="2.000000"
	d="
M382.500000,708.500000 
	C376.836151,707.787231 372.142883,710.261658 367.479614,712.964844 
	C366.269592,713.666260 365.140656,714.819580 363.500000,714.500000 
"/>
<path fill="none" opacity="1.000000" stroke="#000000" stroke-linecap="round" stroke-linejoin="round" stroke-width="3.000000"
	d="
M657.500000,155.000000 
	C653.586670,156.749207 648.414185,156.367599 646.500000,161.500000 
"/>
<path fill="none" opacity="1.000000" stroke="#000000" stroke-linecap="round" stroke-linejoin="round" stroke-width="3.000000"
	d="
M473.000000,719.500000 
	C473.777008,723.685425 477.418335,726.916077 477.000000,731.500000 
"/>
<path fill="none" opacity="1.000000" stroke="#000000" stroke-linecap="round" stroke-linejoin="round" stroke-width="3.000000"
	d="
M685.500000,85.500000 
	C682.443848,82.487732 678.331055,82.381348 674.500000,81.500000 
"/>
<path fill="none" opacity="1.000000" stroke="#000000" stroke-linecap="round" stroke-linejoin="round" stroke-width="2.000000"
	d="
M480.500000,466.500000 
	C480.541748,472.017670 480.033142,477.601166 481.586548,482.974976 
	C482.053406,484.589966 482.250977,485.472565 480.500000,486.000000 
"/>
<path fill="none" opacity="1.000000" stroke="#000000" stroke-linecap="round" stroke-linejoin="round" stroke-width="2.000000"
	d="
M494.500000,708.500000 
	C495.396606,713.756714 497.563232,718.590027 499.500000,723.500000 
"/>
<path fill="none" opacity="1.000000" stroke="#000000" stroke-linecap="round" stroke-linejoin="round" stroke-width="2.000000"
	d="
M451.500000,286.500000 
	C453.666656,290.000000 455.833344,293.500000 458.000000,297.000000 
"/>
<path fill="none" opacity="1.000000" stroke="#000000" stroke-linecap="round" stroke-linejoin="round" stroke-width="3.000000"
	d="
M493.500000,721.500000 
	C493.291138,725.450195 495.726746,728.342651 497.500000,731.500000 
"/>
<path fill="none" opacity="1.000000" stroke="#000000" stroke-linecap="round" stroke-linejoin="round" stroke-width="3.000000"
	d="
M274.500000,171.500000 
	C271.291351,169.977112 268.175415,168.189301 264.500000,168.000000 
"/>
<path fill="none" opacity="1.000000" stroke="#000000" stroke-linecap="round" stroke-linejoin="round" stroke-width="3.000000"
	d="
M506.500000,725.500000 
	C506.911652,729.097595 510.149811,731.705872 510.000000,735.500000 
"/>
<path fill="none" opacity="1.000000" stroke="#000000" stroke-linecap="round" stroke-linejoin="round" stroke-width="3.000000"
	d="
M260.500000,155.500000 
	C266.536102,156.670883 272.738098,157.062714 278.535065,159.413559 
	C278.933441,159.575104 279.833344,158.500000 280.500000,158.000000 
"/>
<path fill="none" opacity="1.000000" stroke="#000000" stroke-linecap="round" stroke-linejoin="round" stroke-width="3.000000"
	d="
M550.500000,248.500000 
	C547.356018,248.227081 544.580444,248.682495 542.453003,251.464066 
	C541.033691,253.319885 539.166626,254.833313 537.500000,256.499969 
"/>
<path fill="none" opacity="1.000000" stroke="#000000" stroke-linecap="round" stroke-linejoin="round" stroke-width="3.000000"
	d="
M506.499969,749.500000 
	C509.666656,752.500000 512.833313,755.500000 516.000000,758.500000 
"/>
<path fill="none" opacity="1.000000" stroke="#000000" stroke-linecap="round" stroke-linejoin="round" stroke-width="3.000000"
	d="
M475.500000,365.500000 
	C478.022522,372.352112 478.127716,372.433960 484.500000,372.500000 
"/>
<path fill="none" opacity="1.000000" stroke="#000000" stroke-linecap="round" stroke-linejoin="round" stroke-width="3.000000"
	d="
M482.000000,709.000000 
	C480.866577,708.933105 479.962799,709.111694 478.956665,709.947815 
	C474.908661,713.311218 473.665680,719.074280 468.580048,721.657593 
	C467.398773,722.257629 467.345032,724.833313 468.500000,726.500000 
"/>
<path fill="none" opacity="1.000000" stroke="#000000" stroke-linecap="round" stroke-linejoin="round" stroke-width="3.000000"
	d="
M606.000000,184.000000 
	C603.237915,186.237946 599.865479,187.865463 598.500000,191.500000 
"/>
<path fill="none" opacity="1.000000" stroke="#000000" stroke-linecap="round" stroke-linejoin="round" stroke-width="2.000000"
	d="
M644.000000,87.000008 
	C641.166687,88.500008 638.333313,90.000008 635.500000,91.500008 
"/>
<path fill="none" opacity="1.000000" stroke="#000000" stroke-linecap="round" stroke-linejoin="round" stroke-width="3.000000"
	d="
M413.000000,743.000000 
	C409.812531,745.651123 406.627960,748.310181 402.000000,747.000000 
"/>
<path fill="none" opacity="1.000000" stroke="#000000" stroke-linecap="round" stroke-linejoin="round" stroke-width="2.000000"
	d="
M422.500000,724.500000 
	C420.327698,726.379822 417.142761,727.402832 417.000000,731.000000 
"/>
<path fill="none" opacity="1.000000" stroke="#000000" stroke-linecap="round" stroke-linejoin="round" stroke-width="2.000000"
	d="
M547.500000,758.500000 
	C551.126770,761.473145 556.978638,760.631897 559.500000,765.500000 
"/>
<path fill="none" opacity="1.000000" stroke="#000000" stroke-linecap="round" stroke-linejoin="round" stroke-width="3.000000"
	d="
M507.500000,772.500000 
	C509.783325,774.558350 511.593384,777.168823 514.500000,778.500000 
"/>
<path fill="none" opacity="1.000000" stroke="#000000" stroke-linecap="round" stroke-linejoin="round" stroke-width="3.000000"
	d="
M405.000000,748.000000 
	C404.097076,750.953918 401.081512,752.120239 399.500000,754.500000 
"/>
<path fill="none" opacity="1.000000" stroke="#000000" stroke-linecap="round" stroke-linejoin="round" stroke-width="3.000000"
	d="
M708.500000,136.500000 
	C705.035950,138.485672 701.213257,137.841812 697.500000,138.000000 
"/>
<path fill="none" opacity="1.000000" stroke="#000000" stroke-linecap="round" stroke-linejoin="round" stroke-width="2.000000"
	d="
M535.500000,728.500000 
	C535.405029,730.610291 536.873047,732.161133 537.450256,734.015503 
	C537.984985,735.733459 536.557739,735.521423 535.500000,735.500000 
"/>
<path fill="none" opacity="1.000000" stroke="#000000" stroke-linecap="round" stroke-linejoin="round" stroke-width="2.000000"
	d="
M510.500000,740.000000 
	C513.457214,741.039307 514.843506,744.078003 517.500000,745.500000 
"/>
<path fill="none" opacity="1.000000" stroke="#000000" stroke-linecap="round" stroke-linejoin="round" stroke-width="2.000000"
	d="
M498.500000,685.500000 
	C500.833344,686.500000 503.166687,687.500000 505.500000,688.500000 
"/>
<path fill="none" opacity="1.000000" stroke="#000000" stroke-linecap="round" stroke-linejoin="round" stroke-width="4.000000"
	d="
M244.500000,153.500000 
	C248.605408,152.568405 252.439270,154.895462 256.500000,154.500000 
"/>
<path fill="none" opacity="1.000000" stroke="#000000" stroke-linecap="round" stroke-linejoin="round" stroke-width="2.000000"
	d="
M529.000000,763.500000 
	C530.406311,765.409973 530.266907,768.584656 533.500000,769.000000 
"/>
<path fill="none" opacity="1.000000" stroke="#000000" stroke-linecap="round" stroke-linejoin="round" stroke-width="3.000000"
	d="
M561.500000,238.999985 
	C559.833313,240.666641 558.166626,242.333313 556.500000,243.999985 
"/>
<path fill="none" opacity="1.000000" stroke="#000000" stroke-linecap="round" stroke-linejoin="round" stroke-width="2.000000"
	d="
M669.500000,114.000000 
	C669.973389,116.380005 666.716003,117.516457 667.500000,120.000000 
"/>
<path fill="none" opacity="1.000000" stroke="#000000" stroke-linecap="round" stroke-linejoin="round" stroke-width="3.000000"
	d="
M275.000000,857.500000 
	C277.131531,861.987732 273.645233,864.509155 271.500000,867.500000 
"/>
<path fill="none" opacity="1.000000" stroke="#000000" stroke-linecap="round" stroke-linejoin="round" stroke-width="2.000000"
	d="
M673.500000,82.000000 
	C671.752136,83.438423 669.653381,84.034828 667.500000,84.500000 
"/>
<path fill="none" opacity="1.000000" stroke="#000000" stroke-linecap="round" stroke-linejoin="round" stroke-width="2.000000"
	d="
M324.500000,761.500000 
	C322.569489,761.643677 321.411530,764.620056 319.000000,763.000000 
"/>
<path fill="none" opacity="1.000000" stroke="#000000" stroke-linecap="round" stroke-linejoin="round" stroke-width="2.000000"
	d="
M427.500000,715.500000 
	C424.166656,717.833313 420.833344,720.166687 417.500000,722.500000 
"/>
<path fill="none" opacity="1.000000" stroke="#000000" stroke-linecap="round" stroke-linejoin="round" stroke-width="2.000000"
	d="
M346.500000,784.500000 
	C345.052063,785.729065 343.413940,786.324219 341.500000,786.000000 
"/>
<path fill="none" opacity="1.000000" stroke="#000000" stroke-linecap="round" stroke-linejoin="round" stroke-width="2.000000"
	d="
M586.500000,850.500000 
	C588.089966,851.171448 589.043701,852.988037 591.000000,853.000000 
"/>
<path fill="none" opacity="1.000000" stroke="#000000" stroke-linecap="round" stroke-linejoin="round" stroke-width="2.000000"
	d="
M417.500000,703.500000 
	C416.088348,704.010071 415.380676,705.927979 413.500000,705.500000 
"/>
<path fill="none" opacity="1.000000" stroke="#000000" stroke-linecap="round" stroke-linejoin="round" stroke-width="2.000000"
	d="
M520.500000,806.500000 
	C520.301880,807.965881 520.963745,809.063171 522.000000,810.000000 
"/>
<path fill="none" opacity="1.000000" stroke="#000000" stroke-linecap="round" stroke-linejoin="round" stroke-width="1.000000"
	d="
M499.000000,292.500000 
	C499.333344,293.000000 499.666687,293.500000 500.000000,294.000000 
"/>
<path fill="none" opacity="1.000000" stroke="#000000" stroke-linecap="round" stroke-linejoin="round" stroke-width="3.000000"
	d="
M489.000000,269.500000 
	C485.754822,271.210754 485.074829,274.147888 484.971436,277.499115 
	C484.822327,282.332642 483.276917,287.086212 484.410950,292.020477 
	C484.684662,293.211395 485.429962,293.708679 486.094543,294.654205 
	C487.848450,294.015106 489.211029,293.034149 489.497803,290.999695 
	C490.432892,284.366058 491.413574,277.730652 490.911591,271.006592 
	C490.886292,270.667206 490.713104,269.286896 489.500000,269.500000 
"/>
</svg>